<svg width="48" height="38" viewBox="0 0 48 38" fill="none" xmlns="http://www.w3.org/2000/svg">
<path d="M41.6458 5.72917C42.4583 6.54167 42.4583 7.83333 41.6458 8.64583L18.0208 32.2708C17.8302 32.4638 17.6031 32.6171 17.3527 32.7216C17.1024 32.8262 16.8338 32.8801 16.5625 32.8801C16.2912 32.8801 16.0226 32.8262 15.7723 32.7216C15.5219 32.6171 15.2948 32.4638 15.1042 32.2708L6.35417 23.5208C6.16117 23.3302 6.00794 23.1031 5.90335 22.8527C5.79877 22.6024 5.74492 22.3338 5.74492 22.0625C5.74492 21.7912 5.79877 21.5226 5.90335 21.2723C6.00794 21.0219 6.16117 20.7948 6.35417 20.6042C6.54484 20.4112 6.77193 20.2579 7.02226 20.1534C7.27259 20.0488 7.5412 19.9949 7.8125 19.9949C8.0838 19.9949 8.35241 20.0488 8.60274 20.1534C8.85308 20.2579 9.08016 20.4112 9.27083 20.6042L16.5625 27.8958L38.7292 5.72917C38.9198 5.53617 39.1469 5.38293 39.3973 5.27835C39.6476 5.17377 39.9162 5.11992 40.1875 5.11992C40.4588 5.11992 40.7274 5.17377 40.9777 5.27835C41.2281 5.38293 41.4552 5.53617 41.6458 5.72917ZM37.25 1.3125L16.5625 22L10.75 16.1875C9.125 14.5625 6.47917 14.5625 4.85417 16.1875L1.9375 19.1042C0.3125 20.7292 0.3125 23.375 1.9375 25L13.6042 36.6667C15.2292 38.2917 17.875 38.2917 19.5 36.6667L46.0625 10.125C47.6875 8.5 47.6875 5.85417 46.0625 4.22917L43.1458 1.3125C41.5 -0.3125 38.875 -0.3125 37.25 1.3125Z" fill="#F6F6F6"/>
</svg>
