<svg width="32" height="32" viewBox="0 0 32 32" fill="none" xmlns="http://www.w3.org/2000/svg">
<path d="M15.643 5.31201H8.50566C7.66435 5.31201 6.8575 5.64503 6.2626 6.23781C5.66771 6.83059 5.3335 7.63457 5.3335 8.47289V22.6969C5.3335 23.5352 5.66771 24.3392 6.2626 24.9319C6.8575 25.5247 7.66435 25.8577 8.50566 25.8577H24.3665C25.2078 25.8577 26.0147 25.5247 26.6095 24.9319C27.2044 24.3392 27.5387 23.5352 27.5387 22.6969V15.5849" stroke="#919BA9" stroke-width="2" stroke-linecap="round" stroke-linejoin="round"/>
<path d="M24.3659 6.89223L25.8774 8.47267M27.5381 3.67919C27.9609 4.11485 28.195 4.6986 28.19 5.30464C28.1849 5.91068 27.9411 6.49048 27.5111 6.91909L16.4355 17.9553L11.6772 19.5357L13.2633 14.7944L24.3453 3.65864C24.7349 3.26745 25.2562 3.03411 25.8085 3.00375C26.3607 2.97339 26.9046 3.14817 27.3351 3.49428L27.5381 3.67919Z" stroke="#919BA9" stroke-width="2" stroke-linecap="round" stroke-linejoin="round"/>
</svg>
