<svg width="50" height="50" viewBox="0 0 50 50" fill="none" xmlns="http://www.w3.org/2000/svg">
<rect width="50" height="50" rx="10" fill="#D9D9D9" fill-opacity="0.2"/>
<path d="M30.3333 34.3333C29.6 34.3333 28.972 34.072 28.4493 33.5493C27.9267 33.0267 27.6658 32.3991 27.6667 31.6667V18.3333C27.6667 17.6 27.928 16.972 28.4507 16.4493C28.9733 15.9267 29.6009 15.6658 30.3333 15.6667C31.0667 15.6667 31.6947 15.928 32.2173 16.4507C32.74 16.9733 33.0009 17.6009 33 18.3333V31.6667C33 32.4 32.7387 33.028 32.216 33.5507C31.6933 34.0733 31.0658 34.3342 30.3333 34.3333ZM19.6667 34.3333C18.9333 34.3333 18.3053 34.072 17.7827 33.5493C17.26 33.0267 16.9991 32.3991 17 31.6667V18.3333C17 17.6 17.2613 16.972 17.784 16.4493C18.3067 15.9267 18.9342 15.6658 19.6667 15.6667C20.4 15.6667 21.028 15.928 21.5507 16.4507C22.0733 16.9733 22.3342 17.6009 22.3333 18.3333V31.6667C22.3333 32.4 22.072 33.028 21.5493 33.5507C21.0267 34.0733 20.3991 34.3342 19.6667 34.3333Z" fill="#F6F6F6"/>
</svg>
