<svg width="32" height="32" viewBox="0 0 32 32" fill="none" xmlns="http://www.w3.org/2000/svg">
<path d="M5.33325 24.0001C5.33325 22.5856 5.89515 21.229 6.89535 20.2288C7.89554 19.2287 9.2521 18.6667 10.6666 18.6667H21.3333C22.7477 18.6667 24.1043 19.2287 25.1045 20.2288C26.1047 21.229 26.6666 22.5856 26.6666 24.0001C26.6666 24.7073 26.3856 25.3856 25.8855 25.8857C25.3854 26.3858 24.7072 26.6667 23.9999 26.6667H7.99992C7.29267 26.6667 6.6144 26.3858 6.1143 25.8857C5.6142 25.3856 5.33325 24.7073 5.33325 24.0001Z" stroke="#919BA9" stroke-width="2" stroke-linejoin="round"/>
<path d="M16 13.3334C18.2091 13.3334 20 11.5425 20 9.33337C20 7.12424 18.2091 5.33337 16 5.33337C13.7909 5.33337 12 7.12424 12 9.33337C12 11.5425 13.7909 13.3334 16 13.3334Z" stroke="#919BA9" stroke-width="2"/>
</svg>
